<?xml version="1.0" encoding="UTF-8"?>
<!DOCTYPE svg PUBLIC "-//W3C//DTD SVG 1.1//EN" "http://www.w3.org/Graphics/SVG/1.1/DTD/svg11.dtd">
<svg xmlns="http://www.w3.org/2000/svg" version="1.1" width="200px" height="28px" style="shape-rendering:geometricPrecision; text-rendering:geometricPrecision; image-rendering:optimizeQuality; fill-rule:evenodd; clip-rule:evenodd" xmlns:xlink="http://www.w3.org/1999/xlink">
<g><path style="opacity:0.294" fill="#0027eb" d="M 30.5,5.5 C 25.3245,4.02792 20.3245,4.52792 15.5,7C 14.2351,8.3374 13.7351,9.8374 14,11.5C 18.1809,14.0017 22.3475,16.5017 26.5,19C 26.3552,19.772 26.0219,20.4387 25.5,21C 22.8333,21.6667 20.1667,21.6667 17.5,21C 16.6634,19.9887 16.33,18.8221 16.5,17.5C 15.5,17.5 14.5,17.5 13.5,17.5C 13.5,19.1667 13.5,20.8333 13.5,22.5C 12.609,21.8902 11.609,21.5569 10.5,21.5C 7.10244,10.6234 10.7691,3.62335 21.5,0.5C 25.3023,0.897156 28.3023,2.56382 30.5,5.5 Z"/></g>
<g><path style="opacity:0.287" fill="#0027eb" d="M 99.5,1.5 C 100.787,2.87135 101.453,4.70469 101.5,7C 100.74,11.8269 100.574,16.6602 101,21.5C 102.135,21.727 103.302,22.0604 104.5,22.5C 102.616,26.0172 100.283,26.3506 97.5,23.5C 89.0965,26.5266 85.5965,23.5266 87,14.5C 89.6973,11.1295 93.1973,9.79618 97.5,10.5C 97.8399,7.85587 97.1733,5.52254 95.5,3.5C 96.9492,2.82811 98.2825,2.16145 99.5,1.5 Z M 93.5,12.5 C 96.8925,12.3753 98.2259,14.042 97.5,17.5C 95.2501,24.1197 92.5834,24.1197 89.5,17.5C 90.1598,15.1853 91.4931,13.5186 93.5,12.5 Z"/></g>
<g><path style="opacity:0.28" fill="#0027eb" d="M 169.5,3.5 C 171.429,3.23082 173.095,3.73082 174.5,5C 173.383,6.89207 171.716,7.72541 169.5,7.5C 169.5,6.16667 169.5,4.83333 169.5,3.5 Z"/></g>
<g><path style="opacity:0.288" fill="#0027eb" d="M 113.5,4.5 C 118.179,4.33418 122.845,4.50085 127.5,5C 128.624,5.24917 129.624,5.74917 130.5,6.5C 126.355,11.813 122.021,16.9797 117.5,22C 120.167,22.6667 122.833,22.6667 125.5,22C 126.313,20.197 127.48,18.697 129,17.5C 129.5,17.8333 130,18.1667 130.5,18.5C 129.652,20.4086 129.318,22.4086 129.5,24.5C 123.794,24.8288 118.128,24.4954 112.5,23.5C 115.78,18.2192 119.447,13.2192 123.5,8.5C 119.438,6.70356 116.272,7.70356 114,11.5C 113.5,11.1667 113,10.8333 112.5,10.5C 113.348,8.59136 113.682,6.59136 113.5,4.5 Z"/></g>
<g><path style="opacity:0.282" fill="#0027eb" d="M 41.5,4.5 C 44.1873,4.33591 46.854,4.50258 49.5,5C 50.4231,7.04083 50.7564,9.2075 50.5,11.5C 49.5,11.5 48.5,11.5 47.5,11.5C 47.5,10.1667 47.5,8.83333 47.5,7.5C 45.4727,7.33788 43.4727,7.50454 41.5,8C 41.0426,8.41395 40.7093,8.91395 40.5,9.5C 43.4459,12.3131 46.7792,14.6465 50.5,16.5C 52.1037,21.0942 50.4371,23.9275 45.5,25C 38.1105,27.17 35.4438,24.67 37.5,17.5C 38.9501,18.8498 39.6168,20.5165 39.5,22.5C 41.8568,22.6633 44.1902,22.4966 46.5,22C 46.9574,21.586 47.2907,21.086 47.5,20.5C 44.1284,17.7235 40.6284,15.0568 37,12.5C 36.3333,10.8333 36.3333,9.16667 37,7.5C 38.6516,6.60064 40.1516,5.60064 41.5,4.5 Z"/></g>
<g><path style="opacity:0.989" fill="#ffffff" d="M 30.5,5.5 C 30.9492,7.97747 30.2825,9.97747 28.5,11.5C 27.5713,10.3112 27.238,8.97782 27.5,7.5C 24.4816,7.33537 21.4816,7.50204 18.5,8C 18.0426,8.41395 17.7093,8.91395 17.5,9.5C 21.505,12.1259 25.8383,14.2926 30.5,16C 31.8408,19.6402 30.5075,21.9735 26.5,23C 21.9796,23.8136 17.6463,23.647 13.5,22.5C 13.5,20.8333 13.5,19.1667 13.5,17.5C 14.5,17.5 15.5,17.5 16.5,17.5C 16.33,18.8221 16.6634,19.9887 17.5,21C 20.1667,21.6667 22.8333,21.6667 25.5,21C 26.0219,20.4387 26.3552,19.772 26.5,19C 22.3475,16.5017 18.1809,14.0017 14,11.5C 13.7351,9.8374 14.2351,8.3374 15.5,7C 20.3245,4.52792 25.3245,4.02792 30.5,5.5 Z"/></g>
<g><path style="opacity:0.29" fill="#0027eb" d="M 30.5,5.5 C 36.5195,14.0437 35.1862,21.3771 26.5,27.5C 23.1667,27.5 19.8333,27.5 16.5,27.5C 14.1939,25.8606 12.1939,23.8606 10.5,21.5C 11.609,21.5569 12.609,21.8902 13.5,22.5C 17.6463,23.647 21.9796,23.8136 26.5,23C 30.5075,21.9735 31.8408,19.6402 30.5,16C 25.8383,14.2926 21.505,12.1259 17.5,9.5C 17.7093,8.91395 18.0426,8.41395 18.5,8C 21.4816,7.50204 24.4816,7.33537 27.5,7.5C 27.238,8.97782 27.5713,10.3112 28.5,11.5C 30.2825,9.97747 30.9492,7.97747 30.5,5.5 Z"/></g>
<g><path style="opacity:0.271" fill="#0027eb" d="M 56.5,10.5 C 59.4475,10.2229 62.2809,10.5562 65,11.5C 65.3333,15.1667 65.6667,18.8333 66,22.5C 69.6079,19.2767 73.7745,16.9433 78.5,15.5C 76.5497,13.2472 74.2163,12.9139 71.5,14.5C 70.2888,13.7261 70.2888,12.8928 71.5,12C 80.9756,8.47402 84.4756,11.6407 82,21.5C 83.1353,21.727 84.302,22.0604 85.5,22.5C 83.4916,26.1082 80.9916,26.4415 78,23.5C 74.9827,25.9454 72.1494,25.6121 69.5,22.5C 67.2419,25.7711 64.7419,26.1045 62,23.5C 59.3333,26.1667 56.6667,26.1667 54,23.5C 53.3333,22.1667 53.3333,20.8333 54,19.5C 56.6239,17.9648 59.4572,16.7982 62.5,16C 60.6647,13.371 58.3314,12.871 55.5,14.5C 55.1667,14 54.8333,13.5 54.5,13C 55.0556,11.9889 55.7222,11.1556 56.5,10.5 Z M 77.5,18.5 C 78.6448,19.7927 78.3115,20.9593 76.5,22C 75.2752,22.5628 74.2752,22.2295 73.5,21C 74.8584,20.0656 76.1917,19.2323 77.5,18.5 Z M 57.5,19.5 C 61.7009,19.442 62.2009,20.442 59,22.5C 57.9614,21.7562 57.4614,20.7562 57.5,19.5 Z"/></g>
<g><path style="opacity:0.278" fill="#0027eb" d="M 152.5,1.5 C 154.25,4.35538 155.083,7.68871 155,11.5C 158.24,9.96367 161.24,10.297 164,12.5C 164.172,15.8255 164.005,19.1589 163.5,22.5C 164.675,22.281 165.675,22.6143 166.5,23.5C 163.92,24.5488 161.254,25.2155 158.5,25.5C 159.312,23.2574 159.979,20.9241 160.5,18.5C 160.345,13.2499 158.178,12.2499 154,15.5C 152.832,18.8926 153.666,21.5592 156.5,23.5C 153.628,24.7825 150.795,24.7825 148,23.5C 145.577,25.9938 143.244,25.9938 141,23.5C 138.333,26.1667 135.667,26.1667 133,23.5C 132.175,21.2992 132.675,19.4659 134.5,18C 136.952,17.7105 139.285,17.0438 141.5,16C 139.665,13.371 137.331,12.871 134.5,14.5C 133.261,12.9928 133.595,11.8261 135.5,11C 138.429,10.2228 141.263,10.3895 144,11.5C 144.333,15.1667 144.667,18.8333 145,22.5C 146.458,21.2532 147.958,21.2532 149.5,22.5C 149.833,19.5 150.167,16.5 150.5,13.5C 150.411,9.97158 149.744,6.63824 148.5,3.5C 149.949,2.82811 151.282,2.16145 152.5,1.5 Z M 136.5,19.5 C 140.701,19.442 141.201,20.442 138,22.5C 136.961,21.7562 136.461,20.7562 136.5,19.5 Z"/></g>
<g><path style="opacity:0.272" fill="#0027eb" d="M 178.5,10.5 C 180.766,10.1412 182.599,10.8078 184,12.5C 185.444,10.8446 187.278,10.178 189.5,10.5C 189.785,12.288 189.452,13.9547 188.5,15.5C 186.902,13.0266 185.402,13.0266 184,15.5C 183.503,17.8098 183.337,20.1432 183.5,22.5C 184.675,22.281 185.675,22.6143 186.5,23.5C 183.973,24.2136 181.473,24.8803 179,25.5C 179.598,22.9732 180.098,20.3066 180.5,17.5C 180.954,14.7759 179.954,12.9425 177.5,12C 178.056,11.6174 178.389,11.1174 178.5,10.5 Z"/></g>
<g><path style="opacity:0.272" fill="#0027eb" d="M 168.5,10.5 C 170.604,10.2011 172.604,10.5344 174.5,11.5C 172.879,15.7048 173.212,19.7048 175.5,23.5C 172.911,25.1573 170.244,25.4906 167.5,24.5C 170.356,21.3758 171.189,17.7092 170,13.5C 167.842,12.9498 167.342,11.9498 168.5,10.5 Z"/></g>
</svg>
